<svg width="35" height="27" viewBox="0 0 35 27" fill="none" xmlns="http://www.w3.org/2000/svg">
<path d="M31.7188 0.25C33.4961 0.25 35 1.75391 35 3.53125C35 4.625 34.4531 5.58203 33.6328 6.19727L18.7988 17.3398C17.9785 17.9551 16.9531 17.9551 16.1328 17.3398L1.29883 6.19727C0.478516 5.58203 0 4.625 0 3.53125C0 1.75391 1.43555 0.25 3.28125 0.25H31.7188ZM14.834 19.1172C16.4062 20.2793 18.5254 20.2793 20.0977 19.1172L35 7.90625V22.125C35 24.5859 33.0176 26.5 30.625 26.5H4.375C1.91406 26.5 0 24.5859 0 22.125V7.90625L14.834 19.1172Z" fill="#F1BB87"/>
</svg>
