<svg width="21" height="36" viewBox="0 0 21 36" fill="none" xmlns="http://www.w3.org/2000/svg">
<path d="M20.4375 10.7188C20.4375 16.1875 15.9941 20.5625 10.5938 20.5625C5.125 20.5625 0.75 16.1875 0.75 10.7188C0.75 5.31836 5.125 0.875 10.5938 0.875C15.9941 0.875 20.4375 5.31836 20.4375 10.7188ZM11.6875 5.25C11.6875 4.70312 11.1406 4.15625 10.5938 4.15625C6.90234 4.15625 4.03125 7.0957 4.03125 10.7188C4.03125 11.334 4.50977 11.8125 5.125 11.8125C5.67188 11.8125 6.21875 11.334 6.21875 10.7188C6.21875 8.32617 8.13281 6.34375 10.5938 6.34375C11.1406 6.34375 11.6875 5.86523 11.6875 5.25ZM8.40625 33.6875V22.6133C9.08984 22.6816 9.8418 22.75 10.5938 22.75C11.2773 22.75 12.0293 22.6816 12.7812 22.6133V33.6875C12.7812 34.918 11.7559 35.875 10.5938 35.875C9.36328 35.875 8.40625 34.918 8.40625 33.6875Z" fill="#F1BB87"/>
</svg>
