<svg width="32" height="31" viewBox="0 0 32 31" fill="none" xmlns="http://www.w3.org/2000/svg">
<path d="M26.9375 0.0625C29.3301 0.0625 31.3125 2.04492 31.3125 4.4375V26.3125C31.3125 28.7734 29.3301 30.6875 26.9375 30.6875H5.0625C2.60156 30.6875 0.6875 28.7734 0.6875 26.3125V4.4375C0.6875 2.04492 2.60156 0.0625 5.0625 0.0625H26.9375ZM24.6816 19.8867C24.8184 19.4082 24.5449 18.8613 24.0664 18.6562L20.375 17.084C19.8965 16.8789 19.418 17.0156 19.1445 17.3574L17.6406 19.2031C15.248 18.041 13.334 16.127 12.1719 13.7344L14.0176 12.2305C14.3594 11.957 14.4961 11.4785 14.291 11L12.7188 7.30859C12.5137 6.83008 11.9668 6.55664 11.4883 6.69336L8.07031 7.44531C7.5918 7.58203 7.25 7.99219 7.25 8.53906C7.25 17.1523 14.2227 24.125 22.8359 24.125C23.3828 24.125 23.793 23.8516 23.8613 23.3047L24.6816 19.8867Z" fill="#F1BB87"/>
</svg>
